<mxfile host="65bd71144e">
    <diagram id="PpmgmPJyVVSvLikrXhkB" name="Page-1">
        <mxGraphModel dx="565" dy="680" grid="1" gridSize="10" guides="1" tooltips="1" connect="1" arrows="1" fold="1" page="1" pageScale="1" pageWidth="827" pageHeight="1169" math="0" shadow="0">
            <root>
                <mxCell id="0"/>
                <mxCell id="1" parent="0"/>
                <mxCell id="2" value="Value(eg.10)" style="ellipse;whiteSpace=wrap;html=1;" vertex="1" parent="1">
                    <mxGeometry x="230" y="80" width="120" height="80" as="geometry"/>
                </mxCell>
                <mxCell id="3" value="" style="shape=singleArrow;direction=south;whiteSpace=wrap;html=1;" vertex="1" parent="1">
                    <mxGeometry x="220" y="150" width="70" height="110" as="geometry"/>
                </mxCell>
                <mxCell id="4" value="left edge" style="text;html=1;align=center;verticalAlign=middle;resizable=0;points=[];autosize=1;strokeColor=none;fillColor=none;" vertex="1" parent="1">
                    <mxGeometry x="220" y="270" width="60" height="20" as="geometry"/>
                </mxCell>
                <mxCell id="5" value="" style="shape=singleArrow;direction=south;whiteSpace=wrap;html=1;" vertex="1" parent="1">
                    <mxGeometry x="310" y="150" width="60" height="100" as="geometry"/>
                </mxCell>
                <mxCell id="8" value="right edge" style="text;html=1;align=center;verticalAlign=middle;resizable=0;points=[];autosize=1;strokeColor=none;fillColor=none;" vertex="1" parent="1">
                    <mxGeometry x="305" y="260" width="70" height="20" as="geometry"/>
                </mxCell>
            </root>
        </mxGraphModel>
    </diagram>
</mxfile>